<?xml version="1.0" encoding="utf-8"?>
<!-- Generator: Adobe Illustrator 24.0.0, SVG Export Plug-In . SVG Version: 6.00 Build 0)  -->
<svg version="1.1" id="图层_1" xmlns="http://www.w3.org/2000/svg" xmlns:xlink="http://www.w3.org/1999/xlink" x="0px" y="0px"
	 viewBox="0 0 193.89 207.46" style="enable-background:new 0 0 193.89 207.46;" xml:space="preserve">
<style type="text/css">
	.st0{fill:#FFFFFF;}
</style>
<path class="st0" d="M76.81,106.59c6.92,3.09,14.6,4.81,22.67,4.81c26.01,0,47.85-17.82,53.98-41.92L76.81,106.59z"/>
<path class="st0" d="M69.45,95.08l2.41-6.33l-0.05,0.01L95.6,26.31l-0.01,0c0.24-0.55,0.38-1.16,0.38-1.8
	c0-2.45-1.98-4.43-4.43-4.43c-0.65,0-1.26,0.15-1.82,0.4L45.51,41.87c-1.13,4.42-1.73,9.06-1.73,13.83
	c0,19.25,9.76,36.21,24.6,46.22l-0.2-0.59c0,0-0.49-2.11,0.06-3.37C69.14,95.87,69.45,95.08,69.45,95.08"/>
<path class="st0" d="M113.73,1.84C109.18,0.64,104.4,0,99.48,0C76.63,0,56.99,13.76,48.4,33.45L113.73,1.84z"/>
<path class="st0" d="M124.14,5.75l0.14,0.43c0,0,0.49,2.11-0.06,3.37c-0.91,2.09-1.22,2.88-1.22,2.88l-2.41,6.34l0.05-0.02
	L96.86,81.19l0,0c-0.24,0.55-0.38,1.16-0.38,1.8c0,2.45,1.99,4.43,4.43,4.43c0.65,0,1.27-0.15,1.82-0.4l52.11-25.24
	c0.22-2,0.33-4.03,0.33-6.09C155.18,33.8,142.53,14.85,124.14,5.75"/>
<polygon class="st0" points="12.42,207.46 0,207.46 0,205.16 8.11,194.9 0.25,194.9 0.25,192.97 12.63,192.97 12.63,195.38 
	4.65,205.56 13.41,205.56 "/>
<polygon class="st0" points="24.22,207.46 24.22,201.06 18.58,201.06 18.58,207.46 14.76,207.46 14.76,192.97 18.58,192.97 
	18.58,199.12 24.22,199.12 24.22,192.97 27.98,192.97 27.98,207.46 "/>
<polygon class="st0" points="29.55,207.46 29.55,192.97 33.26,192.97 33.26,205.52 39.01,205.52 39.01,192.97 42.72,192.97 
	42.72,207.46 "/>
<polygon class="st0" points="44.64,207.46 43.65,205.56 49.02,205.56 49.02,192.97 52.84,192.97 52.84,207.46 "/>
<rect x="54.85" y="192.97" class="st0" width="3.68" height="14.49"/>
<path class="st0" d="M71.7,207.46l-0.99-3.49h-5.68l-1.01,3.49h-4.01l4.35-14.49h6.93l4.39,14.49H71.7z M68.11,194.89h-0.57
	l-1.9,7.12h4.52L68.11,194.89z"/>
<polygon class="st0" points="85.78,207.46 80.57,198.53 80.57,207.46 76.77,207.46 76.77,192.97 81.07,192.97 86.23,202.1 
	86.23,192.97 89.99,192.97 89.99,207.46 "/>
<polygon class="st0" points="100.97,207.46 100.97,205.9 100.04,207.46 91.55,207.46 91.55,192.97 104.71,192.97 104.71,194.85 
	95.37,194.85 95.37,205.6 100.97,205.6 100.97,200.49 98.16,200.49 98.16,198.59 104.75,198.59 104.75,207.46 "/>
<polygon class="st0" points="124.26,207.46 111.57,207.46 111.57,192.97 124.64,192.97 124.64,194.85 115.37,194.85 115.37,205.58 
	125.08,205.58 "/>
<polygon class="st0" points="135.96,207.46 135.96,201.06 130.32,201.06 130.32,207.46 126.5,207.46 126.5,192.97 130.32,192.97 
	130.32,199.12 135.96,199.12 135.96,192.97 139.72,192.97 139.72,207.46 "/>
<rect x="141.71" y="192.97" class="st0" width="3.68" height="14.49"/>
<polygon class="st0" points="157.37,207.46 147.38,207.46 147.38,192.97 151.19,192.97 151.19,205.56 158.16,205.56 "/>
<rect x="159.85" y="192.97" class="st0" width="3.69" height="14.49"/>
<polygon class="st0" points="174.54,207.46 169.33,198.53 169.33,207.46 165.53,207.46 165.53,192.97 169.83,192.97 174.99,202.1 
	174.99,192.97 178.75,192.97 178.75,207.46 "/>
<polygon class="st0" points="189.64,207.44 185.54,201.08 184.13,201.08 184.13,207.44 180.33,207.44 180.33,192.97 184.13,192.97 
	184.13,199.14 185.57,199.14 189.5,192.97 193.78,192.97 189.28,200.15 193.89,207.44 "/>
<path class="st0" d="M12.44,148.06v12.14h3.02v4.81h-3.02v13.48l2.92-0.49v4.81l-15.12,3.02v-4.76l3.62-0.69v-15.36H0.6v-4.81h3.27
	v-12.14H0.35v-4.66h15.56v4.66H12.44z M23,184.89h-7.38l2.18-16.7h7.43L23,184.89z M34.7,166.15v19.92h-8.62v-19.92h-9.86v-4.66
	h9.86v-7.93h-2.53l-0.89,6.05h-6.84l2.18-15.27h6.84l-0.59,4.51h1.83v-6.2h8.62v6.2h7.83v4.71H34.7v7.93h9.71v4.66H34.7z
	 M37.23,184.89l-1.59-16.7h7.14l1.64,16.7H37.23z"/>
<path class="st0" d="M53.38,152.77l-4.36-10.46h9.91l4.46,10.46H53.38z M53.68,165.31l-4.46-10.75h9.71l4.56,10.75H53.68z
	 M58.79,186.13h-9.17l4.41-18.93h9.17L58.79,186.13z M61.56,185.63v-5.01h11.15v-32.56H62.65v-4.96h29.89v4.96H82.43v32.56h11.45
	v5.01H61.56z"/>
<path class="st0" d="M114.25,165.06l-2.23-3.62l-2.68,3.62h-10.8l6.64-8.03h-5.9v-4.46h8.48v-3.12h-0.64l-0.74,2.03h-7.38l2.92-9.27
	h7.48l-0.94,2.83h13.58v4.41h-5.8v3.12h6.24v4.46h-7.14l-1.09,1.49h5.35l3.82,6.54H114.25z M101.56,166.65h39.45v19.48h-39.45
	V166.65z M131.44,171.26h-20.32v2.78h20.32V171.26z M131.44,178.4h-20.32v3.22h20.32V178.4z M123.66,143.36h19.23v21.21h-19.23
	V143.36z M134.57,148.21h-2.58v11.55h2.58V148.21z"/>
<path class="st0" d="M166.78,178.55v7.53H159v-6.64l-10.16,1.04v-4.81l1.59-0.2v-27.85h-1.59v-4.71h19.48v4.71h-1.54v26.02
	l1.59-0.15v4.91L166.78,178.55z M159,147.62h-1.78v5.7H159V147.62z M159,158.08h-1.78v5.75H159V158.08z M159,168.48h-1.78v6.25
	l1.78-0.15V168.48z M184.62,186.08l-3.32-9.42l-4.26,9.42h-9.76l7.88-17.35h-7.43v-4.76h8.18v-9.02h-7.44v-4.81h2.48l-1.73-7.88
	h8.77l1.78,7.88h1.19l2.18-7.88h8.67l-1.98,7.88h2.38v4.81h-7.04v9.02h7.88v4.76h-8.08l-0.89,1.83h4.31l5.5,15.51H184.62z"/>
</svg>
